<?xml version="1.0" encoding="utf-8"?>
<!-- Generator: Adobe Illustrator 21.1.0, SVG Export Plug-In . SVG Version: 6.00 Build 0)  -->
<svg version="1.1" id="Layer_1" xmlns="http://www.w3.org/2000/svg" xmlns:xlink="http://www.w3.org/1999/xlink" x="0px" y="0px"
	 viewBox="0 0 32 32" style="enable-background:new 0 0 32 32;" xml:space="preserve">
<style type="text/css">
	.st0{fill:#FFFFFF;}
</style>
<title>home</title>
<g>
	<rect x="6.8" y="3.6" width="0.8" height="23.9"/>
	<rect x="18.7" y="3.6" width="0.8" height="6.4"/>
	<rect x="18.7" y="9.2" width="6.4" height="0.8"/>
	<rect x="25.1" y="9.2" width="0.8" height="18.4"/>
	<rect x="7.5" y="27.5" width="17.6" height="0.8"/>
	<rect x="15.5" y="13.2" width="6" height="0.8"/>
	<rect x="15.5" y="11.2" width="6" height="0.8"/>
	<rect x="12.3" y="11.6" width="0.8" height="2.4"/>
	<rect x="11.1" y="11.2" width="3.2" height="0.8"/>
	<rect x="11.1" y="15.2" width="10.4" height="0.8"/>
	<rect x="11.1" y="17.1" width="10.4" height="0.8"/>
	<rect x="11.1" y="19.1" width="10.4" height="0.8"/>
	<rect x="11.1" y="21.1" width="10.4" height="0.8"/>
	<rect x="11.1" y="23.1" width="8" height="0.8"/>
	<path class="st0" d="M18.7,10V3.6H7.5v23.9h17.6V10H18.7z M11.1,11.2h3.2V12h-1.2v2h-0.8v-2h-1.2V11.2z M19.1,23.9h-8v-0.8h8V23.9z
		 M21.5,21.9H11.1v-0.8h10.4V21.9z M21.5,19.9H11.1v-0.8h10.4V19.9z M21.5,17.9H11.1v-0.8h10.4V17.9z M21.5,15.9H11.1v-0.8h10.4
		V15.9z M21.5,14h-6v-0.8h6V14z M21.5,12h-6v-0.8h6V12z"/>
	<rect x="7.5" y="2.8" width="12" height="0.8"/>
	<rect x="19.5" y="3.6" width="0.8" height="0.8"/>
	<rect x="20.3" y="4.4" width="0.8" height="0.8"/>
	<rect x="21.1" y="5.2" width="0.8" height="0.8"/>
	<rect x="21.9" y="6" width="0.8" height="0.8"/>
	<rect x="22.7" y="6.8" width="0.8" height="0.8"/>
	<rect x="23.5" y="7.6" width="0.8" height="0.8"/>
	<polygon class="st0" points="24.3,8.4 24.3,9.2 19.5,9.2 19.5,4.4 20.3,4.4 20.3,5.2 21.1,5.2 21.1,6 21.9,6 21.9,6.8 22.7,6.8 
		22.7,7.6 23.5,7.6 23.5,8.4 	"/>
	<rect x="24.3" y="8.4" width="0.8" height="0.8"/>
</g>
</svg>
