<?xml version="1.0" encoding="utf-8"?>
<!-- Generator: Adobe Illustrator 21.1.0, SVG Export Plug-In . SVG Version: 6.00 Build 0)  -->
<svg version="1.1" id="Layer_1" xmlns="http://www.w3.org/2000/svg" xmlns:xlink="http://www.w3.org/1999/xlink" x="0px" y="0px"
	 viewBox="0 0 32 32" style="enable-background:new 0 0 32 32;" xml:space="preserve">
<style type="text/css">
	.st0{fill:#FFFFFF;}
</style>
<title>home</title>
<g>
	<rect x="3.2" y="28.4" width="26.2" height="0.9"/>
	<path d="M28.6,3V1.3h-1.8V3h-1.7V1.3h-1.8V3h-1.7V1.3h-1.8V3h-1.7V1.3h-1.8V3h-1.7V1.3h-1.8V3h-1.7V1.3H9.3V3H7.6V1.3H5.8V3H4.1
		V1.3H2.3v1.8h1.8v1.7H3.2H2.3v0.9v22.7h0.9V5.7h26.2V4.8h1V3H28.6z M5.9,4.8V3.1h1.7v1.7H5.9z M9.4,4.8V3.1h1.7v1.7H9.4z M12.9,4.8
		V3.1h1.7v1.7H12.9z M16.4,4.8V3.1h1.7v1.7H16.4z M19.9,4.8V3.1h1.7v1.7H19.9z M23.4,4.8V3.1h1.7v1.7H23.4z M26.9,4.8V3.1h1.7v1.7
		H26.9z"/>
	<rect x="29.5" y="5.7" width="0.9" height="22.8"/>
	<rect x="9.3" y="11.8" width="0.9" height="3.5"/>
	<rect x="22.9" y="11.8" width="0.9" height="3.5"/>
	<polygon points="16.4,18.8 17.2,18.8 17.3,18.8 17.3,10.9 17.2,10.9 16.4,10.9 16.3,10.9 16.3,17.9 14.7,17.9 14.6,17.9 14.6,18.8 
		14.7,18.8 16.3,18.8 	"/>
	<polygon points="12.8,24.1 19.8,24.1 19.8,24 19.8,23.2 21.6,23.2 21.6,22.3 22.5,22.3 22.5,21.4 22.5,21.3 21.6,21.3 21.6,21.4 
		21.6,22.2 19.8,22.2 19.8,22.3 19.8,23.1 12.9,23.1 12.9,22.3 12.8,22.3 12.8,22.2 11.1,22.2 11.1,21.4 11,21.4 11,21.3 10.1,21.3 
		10.1,22.2 10.2,22.2 10.2,22.3 11,22.3 11,23.1 11.1,23.1 11.1,23.2 12.8,23.2 12.8,24 	"/>
</g>
<rect x="3.1" y="28.3" width="26.3" height="0.9"/>
<rect x="14.5" y="17.8" width="1.8" height="0.9"/>
<rect x="2.2" y="4.6" width="27.2" height="0.9"/>
<rect x="9.2" y="11.6" width="0.9" height="3.5"/>
<rect x="22.8" y="11.6" width="0.9" height="3.5"/>
<rect x="16.2" y="10.8" width="0.9" height="7.9"/>
<rect x="2.2" y="1.1" width="1.8" height="1.8"/>
<rect x="4" y="2.9" width="1.8" height="1.8"/>
<rect x="5.7" y="1.1" width="1.8" height="1.8"/>
<rect x="7.5" y="2.9" width="1.8" height="1.8"/>
<rect x="9.2" y="1.1" width="1.8" height="1.8"/>
<rect x="11" y="2.9" width="1.8" height="1.8"/>
<rect x="12.7" y="1.1" width="1.8" height="1.8"/>
<rect x="14.5" y="2.9" width="1.8" height="1.8"/>
<rect x="16.2" y="1.1" width="1.8" height="1.8"/>
<rect x="18" y="2.9" width="1.8" height="1.8"/>
<rect x="19.8" y="1.1" width="1.8" height="1.8"/>
<rect x="21.5" y="2.9" width="1.8" height="1.8"/>
<rect x="23.3" y="1.1" width="1.8" height="1.8"/>
<rect x="25" y="2.9" width="1.8" height="1.8"/>
<rect x="26.8" y="1.1" width="1.8" height="1.8"/>
<rect x="28.5" y="2.9" width="1.8" height="1.8"/>
<rect x="29.4" y="5.5" width="0.9" height="22.8"/>
<path class="st0" d="M3.1,5.5v22.8h26.3V5.5H3.1z M14.5,17.8h1.8v-7h0.9v7.9h-2.6V17.8z M9.2,11.6h0.9v3.5H9.2V11.6z M22.4,22.2
	h-0.9V23h-1.8v0.9h-7V23H11v-0.9h-0.9v-0.9H11v0.9h1.8V23h7v-0.9h1.8v-0.9h0.9V22.2z M23.7,15.1h-0.9v-3.5h0.9V15.1z"/>
<rect x="2.2" y="4.6" width="0.9" height="23.7"/>
<g>
	<rect x="12.7" y="23" width="7" height="0.9"/>
	<rect x="19.8" y="22.2" width="1.8" height="0.9"/>
	<rect x="11" y="22.2" width="1.8" height="0.9"/>
	<rect x="21.5" y="21.3" width="0.9" height="0.9"/>
	<rect x="10.1" y="21.3" width="0.9" height="0.9"/>
</g>
</svg>
