<?xml version="1.0" encoding="utf-8"?>
<!-- Generator: Adobe Illustrator 21.1.0, SVG Export Plug-In . SVG Version: 6.00 Build 0)  -->
<svg version="1.1" id="Layer_1" xmlns="http://www.w3.org/2000/svg" xmlns:xlink="http://www.w3.org/1999/xlink" x="0px" y="0px"
	 viewBox="0 0 32 32" style="enable-background:new 0 0 32 32;" xml:space="preserve">
<style type="text/css">
	.st0{fill:#FFFFFF;}
</style>
<title>home</title>
<g>
	<rect x="8.4" y="4.1" width="15.1" height="0.8"/>
	<rect x="8.4" y="26.8" width="5" height="0.8"/>
	<rect x="12.6" y="26.8" width="10.9" height="0.8"/>
	<rect x="26.9" y="8.3" width="0.8" height="15.1"/>
	<rect x="4.1" y="8.3" width="0.8" height="15.1"/>
	<rect x="12.6" y="9.9" width="0.8" height="5"/>
	<rect x="12.6" y="18.4" width="0.8" height="8.4"/>
	<rect x="17.2" y="19.2" width="0.8" height="7.6"/>
	<rect x="14.2" y="7.4" width="1.7" height="0.8"/>
	<rect x="13.4" y="8.3" width="0.8" height="1.7"/>
	<rect x="15.9" y="6.6" width="7.6" height="0.8"/>
	<rect x="22.7" y="7.4" width="0.8" height="3.4"/>
	<rect x="22.7" y="14.2" width="0.8" height="5"/>
	<rect x="18" y="10.8" width="5.5" height="0.8"/>
	<rect x="17.2" y="11.6" width="0.8" height="3.4"/>
	<rect x="17.2" y="18.4" width="5.5" height="0.8"/>
	<rect x="10.9" y="14.2" width="0.8" height="5"/>
	<rect x="11.7" y="18.4" width="0.8" height="0.8"/>
	<rect x="11.7" y="14.2" width="0.8" height="0.8"/>
	<polygon class="st0" points="17.2,11.6 17.2,15 22.7,15 22.7,18.4 17.2,18.4 17.2,26.8 13.4,26.8 13.4,18.4 11.7,18.4 11.7,15 
		13.4,15 13.4,9.9 14.2,9.9 14.2,8.3 15.9,8.3 15.9,7.4 22.7,7.4 22.7,10.8 18,10.8 18,11.6 	"/>
	<rect x="18" y="14.2" width="4.6" height="0.8"/>
	<rect x="6.7" y="4.9" width="1.7" height="0.8"/>
	<rect x="5.8" y="5.7" width="0.8" height="0.8"/>
	<rect x="5" y="6.6" width="0.8" height="1.7"/>
	<rect x="26" y="6.6" width="0.8" height="1.7"/>
	<rect x="25.2" y="5.7" width="0.8" height="0.8"/>
	<rect x="23.5" y="4.9" width="1.7" height="0.8"/>
	<rect x="23.5" y="25.9" width="1.7" height="0.8"/>
	<rect x="25.2" y="25.1" width="0.8" height="0.8"/>
	<rect x="26" y="23.4" width="0.8" height="1.7"/>
	<rect x="5" y="23.4" width="0.8" height="1.7"/>
	<rect x="5.8" y="25.1" width="0.8" height="0.8"/>
	<polygon class="st0" points="26.9,8.3 26.9,23.4 26,23.4 26,25.1 25.2,25.1 25.2,25.9 23.5,25.9 23.5,26.8 18,26.8 18,19.2 
		23.5,19.2 23.5,14.2 18,14.2 18,11.6 23.5,11.6 23.5,6.6 15.9,6.6 15.9,7.4 14.2,7.4 14.2,8.3 13.4,8.3 13.4,9.9 12.6,9.9 
		12.6,14.2 10.9,14.2 10.9,19.2 12.6,19.2 12.6,26.8 8.4,26.8 8.4,25.9 6.7,25.9 6.7,25.1 5.8,25.1 5.8,23.4 5,23.4 5,8.3 5.8,8.3 
		5.8,6.6 6.7,6.6 6.7,5.7 8.4,5.7 8.4,4.9 23.5,4.9 23.5,5.7 25.2,5.7 25.2,6.6 26,6.6 26,8.3 	"/>
	<rect x="6.7" y="25.9" width="1.7" height="0.8"/>
</g>
</svg>
