<?xml version="1.0" encoding="utf-8"?>
<!-- Generator: Adobe Illustrator 21.1.0, SVG Export Plug-In . SVG Version: 6.00 Build 0)  -->
<svg version="1.1" id="Layer_1" xmlns="http://www.w3.org/2000/svg" xmlns:xlink="http://www.w3.org/1999/xlink" x="0px" y="0px"
	 viewBox="0 0 32 32" style="enable-background:new 0 0 32 32;" xml:space="preserve">
<style type="text/css">
	.st0{fill:#FFFFFF;}
</style>
<title>home</title>
<g>
	<rect x="14.4" y="6.7" width="0.8" height="0.8"/>
	<rect x="26.3" y="19.8" width="0.8" height="5.1"/>
	<rect x="27.1" y="24.9" width="0.8" height="0.8"/>
	<rect x="25.5" y="14.6" width="0.8" height="5.1"/>
	<rect x="24.7" y="9.9" width="0.8" height="4.7"/>
	<rect x="4.9" y="7.5" width="0.8" height="0.8"/>
	<rect x="4.2" y="7.5" width="0.8" height="0.8"/>
	<rect x="4.2" y="9.9" width="0.8" height="0.8"/>
	<rect x="5.7" y="6.7" width="0.8" height="0.8"/>
	<rect x="6.5" y="6" width="0.8" height="0.8"/>
	<rect x="7.3" y="5.2" width="0.8" height="0.8"/>
	<rect x="13.6" y="6" width="0.8" height="0.8"/>
	<rect x="12.8" y="5.2" width="0.8" height="0.8"/>
	<rect x="8.1" y="4.4" width="4.7" height="0.8"/>
	<rect x="3.4" y="8.3" width="0.8" height="17.4"/>
	<rect x="4.2" y="25.7" width="23.7" height="0.8"/>
	<rect x="15.2" y="7.5" width="12.6" height="0.8"/>
	<polygon class="st0" points="27.1,24.9 27.1,25.7 4.2,25.7 4.2,10.7 4.9,10.7 4.9,9.9 24.7,9.9 24.7,14.6 25.5,14.6 25.5,19.8 
		26.3,19.8 26.3,24.9 	"/>
	<rect x="4.9" y="9.1" width="19.7" height="0.8"/>
	<polygon class="st0" points="27.8,8.3 27.8,24.9 27.1,24.9 27.1,19.8 26.3,19.8 26.3,14.6 25.5,14.6 25.5,9.9 24.7,9.9 24.7,9.1 
		4.9,9.1 4.9,9.9 4.2,9.9 4.2,8.3 5.7,8.3 5.7,7.5 6.5,7.5 6.5,6.7 7.3,6.7 7.3,6 8.1,6 8.1,5.2 12.8,5.2 12.8,6 13.6,6 13.6,6.7 
		14.4,6.7 14.4,7.5 15.2,7.5 15.2,8.3 	"/>
	<rect x="27.8" y="8.3" width="0.8" height="17.4"/>
</g>
</svg>
