<?xml version="1.0" encoding="utf-8"?>
<!-- Generator: Adobe Illustrator 21.1.0, SVG Export Plug-In . SVG Version: 6.00 Build 0)  -->
<svg version="1.1" id="Layer_1" xmlns="http://www.w3.org/2000/svg" xmlns:xlink="http://www.w3.org/1999/xlink" x="0px" y="0px"
	 viewBox="0 0 32 32" style="enable-background:new 0 0 32 32;" xml:space="preserve">
<style type="text/css">
	.st0{fill:#FFFFFF;}
</style>
<title>home</title>
<g>
	<rect x="9.3" y="4.7" width="13.5" height="0.7"/>
	<rect x="9.3" y="24.9" width="13.5" height="0.7"/>
	<rect x="25.7" y="8.4" width="0.7" height="13.5"/>
	<rect x="5.5" y="8.4" width="0.7" height="13.5"/>
	<rect x="7.8" y="5.4" width="1.5" height="0.7"/>
	<rect x="7" y="6.2" width="0.7" height="0.7"/>
	<rect x="6.3" y="6.9" width="0.7" height="1.5"/>
	<rect x="25" y="6.9" width="0.7" height="1.5"/>
	<rect x="24.2" y="6.2" width="0.7" height="0.7"/>
	<rect x="22.7" y="5.4" width="1.5" height="0.7"/>
	<rect x="22.7" y="24.2" width="1.5" height="0.7"/>
	<rect x="24.2" y="23.4" width="0.7" height="0.7"/>
	<rect x="25" y="21.9" width="0.7" height="1.5"/>
	<rect x="6.3" y="21.9" width="0.7" height="1.5"/>
	<rect x="7" y="23.4" width="0.7" height="0.7"/>
	<rect x="7.8" y="24.2" width="1.5" height="0.7"/>
	<rect x="20.5" y="9.2" width="0.7" height="0.7"/>
	<rect x="21.2" y="8.4" width="0.7" height="0.7"/>
	<rect x="22" y="9.2" width="0.7" height="0.7"/>
	<rect x="21.2" y="9.9" width="0.7" height="0.7"/>
	<rect x="13" y="18.2" width="1.5" height="0.7"/>
	<rect x="13" y="11.4" width="1.5" height="0.7"/>
	<rect x="17.5" y="11.4" width="1.5" height="0.7"/>
	<rect x="14.5" y="18.9" width="3" height="0.7"/>
	<rect x="17.5" y="18.2" width="1.5" height="0.7"/>
	<rect x="19" y="16.7" width="0.7" height="1.5"/>
	<rect x="12.3" y="12.2" width="0.7" height="1.5"/>
	<rect x="19" y="12.2" width="0.7" height="1.5"/>
	<rect x="12.3" y="16.7" width="0.7" height="1.5"/>
	<rect x="19.7" y="13.7" width="0.7" height="3"/>
	<rect x="11.5" y="13.7" width="0.7" height="3"/>
	<path class="st0" d="M25,8.4V6.9h-0.7V6.2h-1.5V5.4H9.3v0.7H7.8v0.7H7v1.5H6.3v13.5H7v1.5h0.7v0.7h1.5v0.7h13.5v-0.7h1.5v-0.7H25
		v-1.5h0.7V8.4H25z M20.5,16.7h-0.7v1.5H19v0.7h-1.5v0.7h-3v-0.7H13v-0.7h-0.7v-1.5h-0.7v-3h0.7v-1.5H13v-0.7h1.5v-0.7h3v0.7H19v0.7
		h0.7v1.5h0.7V16.7z M22.7,9.9H22v0.7h-0.7V9.9h-0.7V9.2h0.7V8.4H22v0.7h0.7V9.9z"/>
	<rect x="21.2" y="9.2" class="st0" width="0.7" height="0.7"/>
	<polygon class="st0" points="19.7,13.7 19.7,16.7 19,16.7 19,18.2 17.5,18.2 17.5,18.9 14.5,18.9 14.5,18.2 13,18.2 13,16.7 
		12.3,16.7 12.3,13.7 13,13.7 13,12.2 14.5,12.2 14.5,11.4 17.5,11.4 17.5,12.2 19,12.2 19,13.7 	"/>
	<rect x="14.5" y="10.7" width="3" height="0.7"/>
</g>
</svg>
