<?xml version="1.0" encoding="utf-8"?>
<!-- Generator: Adobe Illustrator 21.1.0, SVG Export Plug-In . SVG Version: 6.00 Build 0)  -->
<svg version="1.1" id="Layer_1" xmlns="http://www.w3.org/2000/svg" xmlns:xlink="http://www.w3.org/1999/xlink" x="0px" y="0px"
	 viewBox="0 0 32 32" style="enable-background:new 0 0 32 32;" xml:space="preserve">
<style type="text/css">
	.st0{fill:#FFFFFF;}
</style>
<title>home</title>
<g>
	<rect x="3.5" y="6.8" width="0.8" height="0.8"/>
	<rect x="4.3" y="7.6" width="0.8" height="0.8"/>
	<rect x="5.1" y="8.5" width="0.8" height="0.8"/>
	<rect x="6" y="9.3" width="0.8" height="0.8"/>
	<rect x="6.8" y="10.1" width="0.8" height="0.8"/>
	<rect x="7.6" y="11" width="0.8" height="0.8"/>
	<rect x="8.5" y="11.8" width="0.8" height="0.8"/>
	<rect x="9.3" y="12.7" width="0.8" height="0.8"/>
	<rect x="10.2" y="13.5" width="0.8" height="0.8"/>
	<rect x="11" y="14.3" width="0.8" height="0.8"/>
	<rect x="11.8" y="15.2" width="0.8" height="0.8"/>
	<rect x="3.5" y="23.5" width="0.8" height="0.8"/>
	<rect x="27.7" y="23.5" width="0.8" height="0.8"/>
	<rect x="26.9" y="22.7" width="0.8" height="0.8"/>
	<rect x="26" y="21.8" width="0.8" height="0.8"/>
	<rect x="25.2" y="21" width="0.8" height="0.8"/>
	<rect x="24.4" y="20.2" width="0.8" height="0.8"/>
	<rect x="23.5" y="19.3" width="0.8" height="0.8"/>
	<rect x="22.7" y="18.5" width="0.8" height="0.8"/>
	<rect x="21.8" y="17.7" width="0.8" height="0.8"/>
	<rect x="21" y="16.8" width="0.8" height="0.8"/>
	<rect x="20.2" y="16" width="0.8" height="0.8"/>
	<rect x="4.3" y="22.7" width="0.8" height="0.8"/>
	<rect x="5.1" y="21.8" width="0.8" height="0.8"/>
	<rect x="6" y="21" width="0.8" height="0.8"/>
	<rect x="6.8" y="20.2" width="0.8" height="0.8"/>
	<rect x="7.6" y="19.3" width="0.8" height="0.8"/>
	<rect x="8.5" y="18.5" width="0.8" height="0.8"/>
	<rect x="9.3" y="17.7" width="0.8" height="0.8"/>
	<rect x="10.2" y="16.8" width="0.8" height="0.8"/>
	<rect x="11" y="16" width="0.8" height="0.8"/>
	<rect x="12.7" y="16" width="0.8" height="0.8"/>
	<rect x="13.5" y="16.8" width="0.8" height="0.8"/>
	<rect x="26.9" y="7.6" width="0.8" height="0.8"/>
	<rect x="27.7" y="6.8" width="0.8" height="0.8"/>
	<rect x="26" y="8.5" width="0.8" height="0.8"/>
	<rect x="25.2" y="9.3" width="0.8" height="0.8"/>
	<rect x="24.4" y="10.1" width="0.8" height="0.8"/>
	<rect x="23.5" y="11" width="0.8" height="0.8"/>
	<rect x="22.7" y="11.8" width="0.8" height="0.8"/>
	<rect x="21.8" y="12.7" width="0.8" height="0.8"/>
	<rect x="21" y="13.5" width="0.8" height="0.8"/>
	<rect x="20.2" y="14.3" width="0.8" height="0.8"/>
	<rect x="19.3" y="15.2" width="0.8" height="0.8"/>
	<rect x="18.5" y="16" width="0.8" height="0.8"/>
	<rect x="17.7" y="16.8" width="0.8" height="0.8"/>
	<rect x="14.3" y="16.8" width="3.3" height="0.8"/>
	<polygon class="st0" points="28.5,7.6 28.5,23.5 27.7,23.5 27.7,22.7 26.9,22.7 26.9,21.8 26,21.8 26,21 25.2,21 25.2,20.2 
		24.4,20.2 24.4,19.3 23.5,19.3 23.5,18.5 22.7,18.5 22.7,17.7 21.8,17.7 21.8,16.8 21,16.8 21,16 20.2,16 20.2,15.2 21,15.2 
		21,14.3 21.8,14.3 21.8,13.5 22.7,13.5 22.7,12.7 23.5,12.7 23.5,11.8 24.4,11.8 24.4,11 25.2,11 25.2,10.1 26,10.1 26,9.3 
		26.9,9.3 26.9,8.5 27.7,8.5 27.7,7.6 	"/>
	<rect x="28.5" y="6.8" width="0.8" height="17.5"/>
	<polygon class="st0" points="11.8,15.2 11.8,16 11,16 11,16.8 10.2,16.8 10.2,17.7 9.3,17.7 9.3,18.5 8.5,18.5 8.5,19.3 7.6,19.3 
		7.6,20.2 6.8,20.2 6.8,21 6,21 6,21.8 5.1,21.8 5.1,22.7 4.3,22.7 4.3,23.5 3.5,23.5 3.5,7.6 4.3,7.6 4.3,8.5 5.1,8.5 5.1,9.3 
		6,9.3 6,10.1 6.8,10.1 6.8,11 7.6,11 7.6,11.8 8.5,11.8 8.5,12.7 9.3,12.7 9.3,13.5 10.2,13.5 10.2,14.3 11,14.3 11,15.2 	"/>
	<rect x="2.6" y="6.8" width="0.8" height="17.5"/>
	<polygon class="st0" points="27.7,23.5 27.7,24.3 4.3,24.3 4.3,23.5 5.1,23.5 5.1,22.7 6,22.7 6,21.8 6.8,21.8 6.8,21 7.6,21 
		7.6,20.2 8.5,20.2 8.5,19.3 9.3,19.3 9.3,18.5 10.2,18.5 10.2,17.7 11,17.7 11,16.8 11.8,16.8 11.8,16 12.7,16 12.7,16.8 
		13.5,16.8 13.5,17.7 18.5,17.7 18.5,16.8 19.3,16.8 19.3,16 20.2,16 20.2,16.8 21,16.8 21,17.7 21.8,17.7 21.8,18.5 22.7,18.5 
		22.7,19.3 23.5,19.3 23.5,20.2 24.4,20.2 24.4,21 25.2,21 25.2,21.8 26,21.8 26,22.7 26.9,22.7 26.9,23.5 	"/>
	<rect x="3.5" y="24.3" width="25.1" height="0.8"/>
	<polygon class="st0" points="27.7,6.8 27.7,7.6 26.9,7.6 26.9,8.5 26,8.5 26,9.3 25.2,9.3 25.2,10.1 24.4,10.1 24.4,11 23.5,11 
		23.5,11.8 22.7,11.8 22.7,12.7 21.8,12.7 21.8,13.5 21,13.5 21,14.3 20.2,14.3 20.2,15.2 19.3,15.2 19.3,16 18.5,16 18.5,16.8 
		13.5,16.8 13.5,16 12.7,16 12.7,15.2 11.8,15.2 11.8,14.3 11,14.3 11,13.5 10.2,13.5 10.2,12.7 9.3,12.7 9.3,11.8 8.5,11.8 8.5,11 
		7.6,11 7.6,10.1 6.8,10.1 6.8,9.3 6,9.3 6,8.5 5.1,8.5 5.1,7.6 4.3,7.6 4.3,6.8 	"/>
	<rect x="3.5" y="6" width="25.1" height="0.8"/>
</g>
</svg>
