<?xml version="1.0" encoding="utf-8"?>
<!-- Generator: Adobe Illustrator 21.1.0, SVG Export Plug-In . SVG Version: 6.00 Build 0)  -->
<svg version="1.1" id="Layer_1" xmlns="http://www.w3.org/2000/svg" xmlns:xlink="http://www.w3.org/1999/xlink" x="0px" y="0px"
	 viewBox="0 0 32 32" style="enable-background:new 0 0 32 32;" xml:space="preserve">
<style type="text/css">
	.st0{fill:#FFFFFF;}
</style>
<title>home</title>
<rect x="15.2" y="28.5" width="1.7" height="0.8"/>
<rect x="15.2" y="24.3" width="1.7" height="0.8"/>
<rect x="16.8" y="25.2" width="0.8" height="0.8"/>
<rect x="16.8" y="27.7" width="0.8" height="0.8"/>
<rect x="14.3" y="27.7" width="0.8" height="0.8"/>
<rect x="14.3" y="25.2" width="0.8" height="0.8"/>
<rect x="15.2" y="21.8" width="1.7" height="0.8"/>
<rect x="14.3" y="21" width="0.8" height="0.8"/>
<rect x="16.8" y="21" width="0.8" height="0.8"/>
<rect x="12.7" y="2.7" width="6.7" height="0.8"/>
<rect x="17.7" y="26" width="0.8" height="1.7"/>
<rect x="18.5" y="16.8" width="0.8" height="1.7"/>
<rect x="19.3" y="16" width="0.8" height="0.8"/>
<rect x="20.2" y="15.2" width="0.8" height="0.8"/>
<rect x="21" y="14.3" width="0.8" height="0.8"/>
<rect x="21.8" y="13.5" width="0.8" height="0.8"/>
<rect x="22.7" y="11.8" width="0.8" height="1.7"/>
<rect x="17.7" y="12.7" width="0.8" height="0.8"/>
<rect x="18.5" y="11.8" width="0.8" height="0.8"/>
<rect x="16.8" y="13.5" width="0.8" height="0.8"/>
<rect x="16" y="14.3" width="0.8" height="0.8"/>
<rect x="15.2" y="15.2" width="0.8" height="0.8"/>
<rect x="14.3" y="16" width="0.8" height="1.7"/>
<rect x="11.8" y="8.9" width="0.8" height="3.7"/>
<rect x="11" y="12.7" width="0.8" height="0.8"/>
<rect x="19.3" y="8.1" width="0.8" height="3.7"/>
<rect x="9.3" y="13.5" width="1.7" height="0.8"/>
<rect x="23.5" y="7.7" width="0.8" height="4.2"/>
<rect x="8.5" y="6" width="0.8" height="1.7"/>
<rect x="9.3" y="5.2" width="0.8" height="0.8"/>
<rect x="10.2" y="4.3" width="0.8" height="0.8"/>
<rect x="21" y="4.3" width="0.8" height="0.8"/>
<rect x="21.8" y="5.2" width="0.8" height="0.8"/>
<rect x="22.7" y="6" width="0.8" height="1.7"/>
<rect x="11" y="3.5" width="1.7" height="0.8"/>
<rect x="19.3" y="3.5" width="1.7" height="0.8"/>
<rect x="13.5" y="6.4" width="5" height="0.8"/>
<rect x="11.8" y="8.1" width="0.8" height="0.8"/>
<rect x="12.7" y="7.3" width="0.8" height="0.8"/>
<rect x="18.5" y="7.3" width="0.8" height="0.8"/>
<rect x="7.7" y="7.7" width="0.8" height="5"/>
<rect x="8.5" y="12.7" width="0.8" height="0.8"/>
<rect x="17.7" y="18.5" width="0.8" height="2.5"/>
<polygon class="st0" points="17.7,26 17.7,27.7 16.8,27.7 16.8,28.5 15.2,28.5 15.2,27.7 14.3,27.7 14.3,26 15.2,26 15.2,25.2 
	16.8,25.2 16.8,26 "/>
<rect x="13.5" y="26" width="0.8" height="1.7"/>
<polygon class="st0" points="23.5,7.7 23.5,11.8 22.7,11.8 22.7,13.5 21.8,13.5 21.8,14.3 21,14.3 21,15.2 20.2,15.2 20.2,16 
	19.3,16 19.3,16.8 18.5,16.8 18.5,18.5 17.7,18.5 17.7,21 16.8,21 16.8,21.8 15.2,21.8 15.2,21 14.3,21 14.3,17.7 15.2,17.7 
	15.2,16 16,16 16,15.2 16.8,15.2 16.8,14.3 17.7,14.3 17.7,13.5 18.5,13.5 18.5,12.7 19.3,12.7 19.3,11.8 20.2,11.8 20.2,8.1 
	19.3,8.1 19.3,7.3 18.5,7.3 18.5,6.4 13.5,6.4 13.5,7.3 12.7,7.3 12.7,8.1 11.8,8.1 11.8,12.7 11,12.7 11,13.5 9.3,13.5 9.3,12.7 
	8.5,12.7 8.5,7.7 9.3,7.7 9.3,6 10.2,6 10.2,5.2 11,5.2 11,4.3 12.7,4.3 12.7,3.5 19.3,3.5 19.3,4.3 21,4.3 21,5.2 21.8,5.2 21.8,6 
	22.7,6 22.7,7.7 "/>
<rect x="13.5" y="17.7" width="0.8" height="3.3"/>
</svg>
