<?xml version="1.0" encoding="utf-8"?>
<!-- Generator: Adobe Illustrator 21.1.0, SVG Export Plug-In . SVG Version: 6.00 Build 0)  -->
<svg version="1.1" id="Layer_1" xmlns="http://www.w3.org/2000/svg" xmlns:xlink="http://www.w3.org/1999/xlink" x="0px" y="0px"
	 viewBox="0 0 32 32" style="enable-background:new 0 0 32 32;" xml:space="preserve">
<style type="text/css">
	.st0{fill:#FFFFFF;}
</style>
<title>home</title>
<g>
	<rect x="23.4" y="22.9" width="1.6" height="0.8"/>
	<rect x="23.4" y="18.9" width="1.6" height="0.8"/>
	<rect x="25" y="19.7" width="0.8" height="0.8"/>
	<rect x="25" y="22.1" width="0.8" height="0.8"/>
	<rect x="22.6" y="22.1" width="0.8" height="0.8"/>
	<rect x="22.6" y="19.7" width="0.8" height="0.8"/>
	<rect x="25.8" y="20.5" width="0.8" height="1.6"/>
	<rect x="21.8" y="20.5" width="0.8" height="1.6"/>
	<rect x="10" y="20.5" width="0.8" height="0.8"/>
	<rect x="10" y="22.1" width="0.8" height="0.8"/>
	<rect x="10" y="23.7" width="0.8" height="0.8"/>
	<rect x="10" y="18.9" width="0.8" height="0.8"/>
	<rect x="11.5" y="20.5" width="0.8" height="0.8"/>
	<rect x="11.5" y="18.9" width="0.8" height="0.8"/>
	<rect x="11.5" y="17.4" width="0.8" height="0.8"/>
	<rect x="13.1" y="20.5" width="0.8" height="0.8"/>
	<rect x="11.5" y="22.1" width="0.8" height="0.8"/>
	<rect x="11.5" y="23.7" width="0.8" height="0.8"/>
	<rect x="13.1" y="18.9" width="0.8" height="0.8"/>
	<rect x="13.1" y="17.4" width="0.8" height="0.8"/>
	<rect x="14.7" y="17.4" width="0.8" height="0.8"/>
	<rect x="10" y="17.4" width="0.8" height="0.8"/>
	<rect x="16.3" y="17.4" width="0.8" height="0.8"/>
	<rect x="14.7" y="18.9" width="0.8" height="0.8"/>
	<rect x="16.3" y="18.9" width="0.8" height="0.8"/>
	<rect x="13.1" y="23.7" width="0.8" height="0.8"/>
	<rect x="13.1" y="22.1" width="0.8" height="0.8"/>
	<rect x="14.7" y="23.7" width="0.8" height="0.8"/>
	<rect x="14.7" y="22.1" width="0.8" height="0.8"/>
	<rect x="14.7" y="20.5" width="0.8" height="0.8"/>
	<rect x="16.3" y="20.5" width="0.8" height="0.8"/>
	<rect x="16.3" y="23.7" width="0.8" height="0.8"/>
	<rect x="15.1" y="26.1" width="0.8" height="0.8"/>
	<rect x="16.3" y="22.1" width="0.8" height="0.8"/>
	<rect x="17.9" y="18.9" width="0.8" height="0.8"/>
	<rect x="17.9" y="20.5" width="0.8" height="0.8"/>
	<rect x="17.9" y="22.1" width="0.8" height="0.8"/>
	<rect x="8.4" y="17.4" width="0.8" height="0.8"/>
	<rect x="8.4" y="18.9" width="0.8" height="0.8"/>
	<rect x="8.4" y="20.5" width="0.8" height="0.8"/>
	<rect x="8.4" y="23.7" width="0.8" height="0.8"/>
	<rect x="8.4" y="22.1" width="0.8" height="0.8"/>
	<rect x="6.8" y="18.9" width="0.8" height="0.8"/>
	<rect x="6.8" y="20.5" width="0.8" height="0.8"/>
	<rect x="6.8" y="22.1" width="0.8" height="0.8"/>
	<rect x="23.4" y="9.9" transform="matrix(-1.836970e-16 1 -1 -1.836970e-16 34.4313 -13.1474)" width="0.8" height="1.6"/>
	<rect x="21.8" y="9.1" transform="matrix(-1.836970e-16 1 -1 -1.836970e-16 32.0592 -12.3567)" width="0.8" height="1.6"/>
	<rect x="20.2" y="8.3" transform="matrix(-1.836970e-16 1 -1 -1.836970e-16 29.6871 -11.566)" width="0.8" height="1.6"/>
	<rect x="18.6" y="7.5" transform="matrix(-1.836970e-16 1 -1 -1.836970e-16 27.315 -10.7754)" width="0.8" height="1.6"/>
	<rect x="17.1" y="6.7" transform="matrix(-1.836970e-16 1 -1 -1.836970e-16 24.9429 -9.9848)" width="0.8" height="1.6"/>
	<rect x="15.5" y="5.9" transform="matrix(-1.836970e-16 1 -1 -1.836970e-16 22.5708 -9.194)" width="0.8" height="1.6"/>
	<rect x="13.9" y="5.1" transform="matrix(-1.836970e-16 1 -1 -1.836970e-16 20.1986 -8.4032)" width="0.8" height="1.6"/>
	<rect x="12.3" y="4.3" transform="matrix(-1.836970e-16 1 -1 -1.836970e-16 17.8265 -7.6124)" width="0.8" height="1.6"/>
	<rect x="10.7" y="3.5" transform="matrix(-1.836970e-16 1 -1 -1.836970e-16 15.4544 -6.8219)" width="0.8" height="1.6"/>
	<rect x="9.2" y="2.7" transform="matrix(-1.836970e-16 1 -1 -1.836970e-16 13.0824 -6.0314)" width="0.8" height="1.6"/>
	<rect x="28.1" y="13.4" width="0.8" height="0.8"/>
	<rect x="21.8" y="13.4" width="0.8" height="2"/>
	<rect x="20.2" y="14.2" width="0.8" height="0.8"/>
	<rect x="18.6" y="14.2" width="0.8" height="0.8"/>
	<rect x="17.1" y="14.2" width="0.8" height="0.8"/>
	<rect x="15.5" y="14.2" width="0.8" height="0.8"/>
	<rect x="13.9" y="14.2" width="0.8" height="0.8"/>
	<rect x="12.3" y="14.2" width="0.8" height="0.8"/>
	<rect x="9.2" y="14.2" width="0.8" height="0.8"/>
	<rect x="7.6" y="14.2" width="0.8" height="0.8"/>
	<rect x="6" y="13.4" width="0.8" height="2"/>
	<rect x="10.7" y="13.8" width="0.8" height="2.4"/>
	<rect x="27.3" y="12.6" width="0.8" height="0.8"/>
	<rect x="26.6" y="11.8" width="0.8" height="0.8"/>
	<rect x="5.2" y="11" width="21.3" height="0.8"/>
	<rect x="6.8" y="12.6" width="15" height="0.8"/>
	<rect x="6.8" y="15.4" width="15" height="0.8"/>
	<rect x="5.2" y="26.1" width="23.7" height="0.8"/>
	<rect x="28.9" y="14.2" width="0.8" height="11.9"/>
	<path class="st0" d="M28.1,14.2v-0.8h-0.8v-0.8h-0.8v-0.8H5.2v14.2h23.7V14.2H28.1z M7.6,22.9H6.8v-0.8h0.8V22.9z M7.6,21.3H6.8
		v-0.8h0.8V21.3z M7.6,19.7H6.8v-0.8h0.8V19.7z M9.2,24.5H8.4v-0.8h0.8V24.5z M9.2,22.9H8.4v-0.8h0.8V22.9z M9.2,21.3H8.4v-0.8h0.8
		V21.3z M9.2,19.7H8.4v-0.8h0.8V19.7z M9.2,18.2H8.4v-0.8h0.8V18.2z M10.7,24.5H10v-0.8h0.8V24.5z M10.7,22.9H10v-0.8h0.8V22.9z
		 M10.7,21.3H10v-0.8h0.8V21.3z M10.7,19.7H10v-0.8h0.8V19.7z M10.7,18.2H10v-0.8h0.8V18.2z M12.3,24.5h-0.8v-0.8h0.8V24.5z
		 M12.3,22.9h-0.8v-0.8h0.8V22.9z M12.3,21.3h-0.8v-0.8h0.8V21.3z M12.3,19.7h-0.8v-0.8h0.8V19.7z M12.3,18.2h-0.8v-0.8h0.8V18.2z
		 M13.9,24.5h-0.8v-0.8h0.8V24.5z M13.9,22.9h-0.8v-0.8h0.8V22.9z M13.9,21.3h-0.8v-0.8h0.8V21.3z M13.9,19.7h-0.8v-0.8h0.8V19.7z
		 M13.9,18.2h-0.8v-0.8h0.8V18.2z M15.5,24.5h-0.8v-0.8h0.8V24.5z M15.5,22.9h-0.8v-0.8h0.8V22.9z M15.5,21.3h-0.8v-0.8h0.8V21.3z
		 M15.5,19.7h-0.8v-0.8h0.8V19.7z M15.5,18.2h-0.8v-0.8h0.8V18.2z M6.8,16.2v-0.8H6v-2h0.8v-0.8h15v0.8h0.8v2h-0.8v0.8H6.8z
		 M17.1,24.5h-0.8v-0.8h0.8V24.5z M17.1,22.9h-0.8v-0.8h0.8V22.9z M17.1,21.3h-0.8v-0.8h0.8V21.3z M17.1,19.7h-0.8v-0.8h0.8V19.7z
		 M17.1,18.2h-0.8v-0.8h0.8V18.2z M18.6,22.9h-0.8v-0.8h0.8V22.9z M18.6,21.3h-0.8v-0.8h0.8V21.3z M18.6,19.7h-0.8v-0.8h0.8V19.7z
		 M26.6,22.1h-0.8v0.8H25v0.8h-1.6v-0.8h-0.8v-0.8h-0.8v-1.6h0.8v-0.8h0.8v-0.8H25v0.8h0.8v0.8h0.8V22.1z"/>
	<path class="st0" d="M6.8,13.4v2h4v-1.6h0.8v1.6h10.3v-2H6.8z M8.4,15H7.6v-0.8h0.8V15z M10,15H9.2v-0.8H10V15z M13.1,15h-0.8v-0.8
		h0.8V15z M14.7,15h-0.8v-0.8h0.8V15z M16.3,15h-0.8v-0.8h0.8V15z M17.9,15h-0.8v-0.8h0.8V15z M19.4,15h-0.8v-0.8h0.8V15z M21,15
		h-0.8v-0.8H21V15z"/>
	<polygon class="st0" points="25.8,20.5 25.8,22.1 25,22.1 25,22.9 23.4,22.9 23.4,22.1 22.6,22.1 22.6,20.5 23.4,20.5 23.4,19.7 
		25,19.7 25,20.5 	"/>
	<rect x="4.4" y="11.8" width="0.8" height="14.2"/>
	<rect x="8.4" y="26.9" width="0.8" height="1.6"/>
	<rect x="10.7" y="26.9" width="0.8" height="1.6"/>
	<rect x="9.2" y="26.9" class="st0" width="1.6" height="0.8"/>
	<rect x="9.2" y="27.6" width="1.6" height="0.8"/>
	<rect x="22.6" y="26.9" width="0.8" height="1.6"/>
	<rect x="25" y="26.9" width="0.8" height="1.6"/>
	<rect x="23.4" y="26.9" class="st0" width="1.6" height="0.8"/>
	<rect x="23.4" y="27.6" width="1.6" height="0.8"/>
</g>
</svg>
