<?xml version="1.0" encoding="utf-8"?>
<!-- Generator: Adobe Illustrator 21.1.0, SVG Export Plug-In . SVG Version: 6.00 Build 0)  -->
<svg version="1.1" id="Layer_1" xmlns="http://www.w3.org/2000/svg" xmlns:xlink="http://www.w3.org/1999/xlink" x="0px" y="0px"
	 viewBox="0 0 32 32" style="enable-background:new 0 0 32 32;" xml:space="preserve">
<style type="text/css">
	.st0{fill:#FFFFFF;}
</style>
<title>home</title>
<g>
	<rect x="14.2" y="3.9" width="0.9" height="3.9"/>
	<rect x="9.1" y="22.9" width="0.9" height="1.7"/>
	<rect x="9.9" y="24.7" width="1.7" height="0.9"/>
	<rect x="11.6" y="25.5" width="10.8" height="0.9"/>
	<rect x="23.3" y="21.2" width="0.9" height="3.5"/>
	<rect x="9.9" y="2.2" width="3.5" height="0.9"/>
	<rect x="14.2" y="13.4" width="0.9" height="6.1"/>
	<rect x="15.1" y="13.4" width="7.4" height="0.9"/>
	<rect x="14.2" y="7.4" width="8.2" height="0.9"/>
	<rect x="23.3" y="9.1" width="0.9" height="3.5"/>
	<rect x="8.2" y="3.9" width="0.9" height="19"/>
	<rect x="9.1" y="3.1" width="0.9" height="0.9"/>
	<rect x="22.5" y="8.2" width="0.9" height="0.9"/>
	<rect x="22.5" y="12.6" width="0.9" height="0.9"/>
	<rect x="22.5" y="20.3" width="0.9" height="0.9"/>
	<rect x="22.5" y="24.7" width="0.9" height="0.9"/>
	<rect x="13.4" y="3.1" width="0.9" height="0.9"/>
	<polygon class="st0" points="14.2,13.4 14.2,19.5 15.1,19.5 15.1,20.3 22.5,20.3 22.5,21.2 23.3,21.2 23.3,24.7 22.5,24.7 
		22.5,25.5 11.6,25.5 11.6,24.7 9.9,24.7 9.9,22.9 9.1,22.9 9.1,3.9 9.9,3.9 9.9,3.1 13.4,3.1 13.4,3.9 14.2,3.9 14.2,8.2 22.5,8.2 
		22.5,9.1 23.3,9.1 23.3,12.6 22.5,12.6 22.5,13.4 	"/>
	<rect x="15.1" y="19.5" width="7.4" height="0.9"/>
</g>
</svg>
